<?xml version="1.0" encoding="UTF-8" standalone="no"?>
<!-- Created with Inkscape (http://www.inkscape.org/) -->

<svg
   xmlns:dc="http://purl.org/dc/elements/1.1/"
   xmlns:cc="http://creativecommons.org/ns#"
   xmlns:rdf="http://www.w3.org/1999/02/22-rdf-syntax-ns#"
   xmlns:svg="http://www.w3.org/2000/svg"
   xmlns="http://www.w3.org/2000/svg"
   xmlns:sodipodi="http://sodipodi.sourceforge.net/DTD/sodipodi-0.dtd"
   xmlns:inkscape="http://www.inkscape.org/namespaces/inkscape"
   width="53.178871mm"
   height="26.040894mm"
   viewBox="0 0 53.178871 26.040894"
   version="1.1"
   id="svg8365"
   inkscape:version="0.92.1 r"
   sodipodi:docname="logo-medilab-uk.svg">
  <defs
     id="defs8359" />
  <sodipodi:namedview
     id="base"
     pagecolor="#ffffff"
     bordercolor="#666666"
     borderopacity="1.0"
     inkscape:pageopacity="0.0"
     inkscape:pageshadow="2"
     inkscape:zoom="1.979899"
     inkscape:cx="118.99413"
     inkscape:cy="59.468596"
     inkscape:document-units="mm"
     inkscape:current-layer="layer1"
     showgrid="false"
     fit-margin-top="0"
     fit-margin-left="0"
     fit-margin-right="0"
     fit-margin-bottom="0"
     inkscape:window-width="1600"
     inkscape:window-height="836"
     inkscape:window-x="0"
     inkscape:window-y="27"
     inkscape:window-maximized="1" />
  <metadata
     id="metadata8362">
    <rdf:RDF>
      <cc:Work
         rdf:about="">
        <dc:format>image/svg+xml</dc:format>
        <dc:type
           rdf:resource="http://purl.org/dc/dcmitype/StillImage" />
        <dc:title></dc:title>
      </cc:Work>
    </rdf:RDF>
  </metadata>
  <g
     inkscape:label="Calque 1"
     inkscape:groupmode="layer"
     id="layer1"
     transform="translate(58.717404,-138.52684)">
    <g
       transform="matrix(1.7878648,0,0,1.7878648,331.65701,-280.23262)"
       id="g8329">
      <g
         id="flowRoot4542"
         style="font-style:normal;font-variant:normal;font-weight:bold;font-stretch:normal;font-size:40px;line-height:25px;font-family:'Nimbus Sans L';-inkscape-font-specification:'Nimbus Sans L, Bold';font-variant-ligatures:normal;font-variant-caps:normal;font-variant-numeric:normal;font-feature-settings:normal;text-align:start;letter-spacing:0px;word-spacing:0px;writing-mode:lr-tb;text-anchor:start;fill:#197648;fill-opacity:1;stroke:none"
         transform="matrix(0.11986466,0,0,0.10866642,-206.53716,259.71636)"
         aria-label="MEDILAB UK">
        <path
           id="path4586"
           d="m 112.19906,-130.64258 v 19.76 c 0,3.52 -1.8,5.2 -5.56,5.2 -3.76,0 -5.56,-1.68 -5.56,-5.2 v -19.76 h -5.999997 v 19.76 c 0,3.28 0.88,5.6 2.839999,7.36 2.119998,1.92 5.199998,2.96 8.719998,2.96 3.52,0 6.6,-1.04 8.72,-2.96 1.96,-1.76 2.84,-4.08 2.84,-7.36 v -19.76 z"
           inkscape:connector-curvature="0" />
        <path
           id="path4588"
           d="m 129.90531,-111.24258 3,-3.12 9.56,12.88 h 7.16 l -12.88,-16.6 11.64,-12.56 h -7.08 l -11.4,12.8 v -12.8 h -6 v 29.16 h 6 z"
           inkscape:connector-curvature="0" />
      </g>
      <g
         id="g4673"
         transform="matrix(0.14126786,0,0,0.14126786,-220.18046,233.10651)">
        <path
           sodipodi:nodetypes="cccccccc"
           inkscape:connector-curvature="0"
           id="path4670"
           d="M 71.320483,77.836776 71.254253,46.30739 c 5.855284,4.941092 11.016825,9.923601 11.535673,22.424643 h 7.223201 C 90.254949,56.62277 94.644219,49.123072 100.32078,45.127145 l -0.17361,25.799326 c -8.140499,6.894331 -18.173895,7.552525 -28.826577,6.910305 z"
           style="fill:#e5322d;fill-opacity:1;stroke:none;stroke-width:1px;stroke-linecap:butt;stroke-linejoin:miter;stroke-opacity:1" />
        <path
           inkscape:connector-curvature="0"
           id="path4672"
           d="M 100.62395,76.172269 Z"
           style="fill:none;stroke:#000000;stroke-width:1px;stroke-linecap:butt;stroke-linejoin:miter;stroke-opacity:1" />
        <path
           sodipodi:nodetypes="cccccc"
           inkscape:connector-curvature="0"
           id="path4674"
           d="m 100.62395,76.172269 v 1.664507 h 24.79832 V 70.418097 H 109.0683 Z"
           style="fill:#e5322d;fill-opacity:1;stroke:none;stroke-width:1px;stroke-linecap:butt;stroke-linejoin:miter;stroke-opacity:1" />
        <g
           id="g4608">
          <g
             id="g10185"
             inkscape:export-xdpi="300"
             inkscape:export-ydpi="300">
            <g
               id="g4656">
              <path
                 style="fill:#e5322d;fill-opacity:1;stroke:none;stroke-width:1px;stroke-linecap:butt;stroke-linejoin:miter;stroke-opacity:1"
                 d="m 52.37368,70.58633 -8.136071,-0.136745 -0.06275,7.387196 h 16.250586 l -0.05786,-42.573102 12.596694,0.134435 c 4.957761,2.876257 9.656403,7.631072 13.352948,12.399154 C 90.58704,41.09664 96.18085,36.250101 99.19327,35.263679 h 12.92995 v 28.649113 c 15.2956,-11.484283 19.70839,-38.236623 5.6688,-50.690098 C 104.59525,1.5168221 74.753698,11.070342 60.088232,23.2374 54.733115,27.680219 33.271698,52.150265 52.268976,68.780462 Z"
                 id="path4668"
                 inkscape:connector-curvature="0"
                 sodipodi:nodetypes="ccccccccccsscc" />
            </g>
          </g>
          <path
             id="path4572"
             style="font-style:normal;font-variant:normal;font-weight:bold;font-stretch:normal;font-size:40px;line-height:25px;font-family:'Nimbus Sans L';-inkscape-font-specification:'Nimbus Sans L, Bold';font-variant-ligatures:normal;font-variant-caps:normal;font-variant-numeric:normal;font-feature-settings:normal;text-align:start;letter-spacing:0px;word-spacing:0px;writing-mode:lr-tb;text-anchor:start;fill:#197648;fill-opacity:1;stroke:none"
             d="m -92.524062,-124.20258 5.239999,22.72 h 6 l 5.16,-22.72 v 22.72 h 6 v -29.16 h -9.039999 l -5.120001,23.2 -5.28,-23.2 h -8.959999 v 29.16 h 6 z"
             transform="matrix(0.84849208,0,0,0.76922245,96.57748,188.36446)"
             inkscape:connector-curvature="0" />
          <path
             id="path4574"
             style="font-style:normal;font-variant:normal;font-weight:bold;font-stretch:normal;font-size:40px;line-height:25px;font-family:'Nimbus Sans L';-inkscape-font-specification:'Nimbus Sans L, Bold';font-variant-ligatures:normal;font-variant-caps:normal;font-variant-numeric:normal;font-feature-settings:normal;text-align:start;letter-spacing:0px;word-spacing:0px;writing-mode:lr-tb;text-anchor:start;fill:#197648;fill-opacity:1;stroke:none"
             d="m -58.644688,-114.04258 h 13.96 v -5 h -13.96 v -6.6 h 15.08 v -5 h -21.08 v 29.16 h 21.800001 v -5 h -15.800001 z"
             transform="matrix(0.84849208,0,0,0.76922245,96.57748,188.36446)"
             inkscape:connector-curvature="0" />
          <path
             id="path4576"
             style="font-style:normal;font-variant:normal;font-weight:bold;font-stretch:normal;font-size:40px;line-height:25px;font-family:'Nimbus Sans L';-inkscape-font-specification:'Nimbus Sans L, Bold';font-variant-ligatures:normal;font-variant-caps:normal;font-variant-numeric:normal;font-feature-settings:normal;text-align:start;letter-spacing:0px;word-spacing:0px;writing-mode:lr-tb;text-anchor:start;fill:#197648;fill-opacity:1;stroke:none"
             d="m -38.005938,-101.48258 h 11.400001 c 4.44,0 7.24,-1.04 9.24,-3.4 2.279999,-2.72 3.52,-6.64 3.52,-11.2 0,-4.52 -1.240001,-8.44 -3.52,-11.2 -2,-2.36 -4.76,-3.36 -9.24,-3.36 h -11.400001 z m 6,-5 v -19.16 h 5.400001 c 4.52,0 6.76,3.16 6.76,9.6 0,6.4 -2.24,9.56 -6.76,9.56 z"
             transform="matrix(0.84849208,0,0,0.76922245,96.57748,188.36446)"
             inkscape:connector-curvature="0" />
          <path
             id="path4578"
             style="font-style:normal;font-variant:normal;font-weight:bold;font-stretch:normal;font-size:40px;line-height:25px;font-family:'Nimbus Sans L';-inkscape-font-specification:'Nimbus Sans L, Bold';font-variant-ligatures:normal;font-variant-caps:normal;font-variant-numeric:normal;font-feature-settings:normal;text-align:start;letter-spacing:0px;word-spacing:0px;writing-mode:lr-tb;text-anchor:start;fill:#197648;fill-opacity:1;stroke:none"
             d="m -3.6596875,-130.64258 h -6 v 29.16 h 6 z"
             transform="matrix(0.84849208,0,0,0.76922245,96.57748,188.36446)"
             inkscape:connector-curvature="0" />
          <path
             id="path4580"
             style="font-style:normal;font-variant:normal;font-weight:bold;font-stretch:normal;font-size:40px;line-height:25px;font-family:'Nimbus Sans L';-inkscape-font-specification:'Nimbus Sans L, Bold';font-variant-ligatures:normal;font-variant-caps:normal;font-variant-numeric:normal;font-feature-settings:normal;text-align:start;letter-spacing:0px;word-spacing:0px;writing-mode:lr-tb;text-anchor:start;fill:#197648;fill-opacity:1;stroke:none"
             d="m 8.1140625,-130.64258 h -6 v 29.16 H 22.074062 v -5 H 8.1140625 Z"
             transform="matrix(0.84849208,0,0,0.76922245,96.57748,188.36446)"
             inkscape:connector-curvature="0" />
          <path
             id="path4582"
             style="font-style:normal;font-variant:normal;font-weight:bold;font-stretch:normal;font-size:40px;line-height:25px;font-family:'Nimbus Sans L';-inkscape-font-specification:'Nimbus Sans L, Bold';font-variant-ligatures:normal;font-variant-caps:normal;font-variant-numeric:normal;font-feature-settings:normal;text-align:start;letter-spacing:0px;word-spacing:0px;writing-mode:lr-tb;text-anchor:start;fill:#197648;fill-opacity:1;stroke:none"
             d="m 43.719687,-107.36258 1.92,5.88 h 6.160001 l -10.080001,-29.16 h -6.639999 l -10.360001,29.16 h 6.12 l 1.960001,-5.88 z m -1.639999,-5 h -7.600001 l 3.800001,-11.4 z"
             transform="matrix(0.84849208,0,0,0.76922245,96.57748,188.36446)"
             inkscape:connector-curvature="0" />
          <path
             id="path4584"
             style="font-style:normal;font-variant:normal;font-weight:bold;font-stretch:normal;font-size:40px;line-height:25px;font-family:'Nimbus Sans L';-inkscape-font-specification:'Nimbus Sans L, Bold';font-variant-ligatures:normal;font-variant-caps:normal;font-variant-numeric:normal;font-feature-settings:normal;text-align:start;letter-spacing:0px;word-spacing:0px;writing-mode:lr-tb;text-anchor:start;fill:#197648;fill-opacity:1;stroke:none"
             d="m 55.319062,-101.48258 h 13.120001 c 3.359999,0 5.599999,-0.64 7.359999,-2.12 1.76,-1.48 2.88,-3.92 2.88,-6.28 0,-2.88 -1.519999,-5.16 -4.84,-7.08 2.880001,-1.84 4,-3.52 4,-6 0,-2.04 -1,-4.12 -2.64,-5.56 -1.72,-1.48 -3.759999,-2.12 -6.88,-2.12 h -13 z m 6,-24.16 h 6.52 c 2.8,0 4.24,1.12 4.24,3.28 0,2.2 -1.44,3.32 -4.24,3.32 h -6.52 z m 0,11.6 h 7.16 c 2.92,0 4.44,1.28 4.44,3.8 0,2.48 -1.52,3.76 -4.44,3.76 h -7.16 z"
             transform="matrix(0.84849208,0,0,0.76922245,96.57748,188.36446)"
             inkscape:connector-curvature="0" />
          <circle
             style="opacity:0.98999999;fill:#e5322d;fill-opacity:1;stroke:none;stroke-width:21.05763817;stroke-linecap:butt;stroke-linejoin:miter;stroke-miterlimit:4;stroke-dasharray:none;stroke-dashoffset:0;stroke-opacity:1"
             id="path4556"
             cx="90.966919"
             cy="90.359772"
             r="3.9343488" />
        </g>
      </g>
    </g>
  </g>
</svg>
